<svg viewBox="0 0 120 120" xmlns="http://www.w3.org/2000/svg">
  <rect x="10" y="80" width="100" height="30" rx="4" fill="#fef3c7" stroke="#374151" stroke-width="2"/>
  <line x1="20" y1="95" x2="100" y2="95" stroke="#fbbf24" stroke-width="2" stroke-linecap="round"/>
  <rect x="25" y="75" width="70" height="8" rx="2" fill="#e5e7eb" stroke="#374151" stroke-width="2"/>
  <rect x="52" y="38" width="16" height="6" rx="2" fill="#dbeafe" stroke="#374151" stroke-width="2"/>
  <rect x="46" y="44" width="28" height="34" rx="4" fill="#dbeafe" stroke="#374151" stroke-width="2"/>
  <path d="M46 60 L74 60 L74 74 Q74 78 70 78 L50 78 Q46 78 46 74 Z" fill="#93c5fd" stroke="none"/>
  <line x1="46" y1="60" x2="74" y2="60" stroke="#374151" stroke-width="1.5"/>
  <rect x="76" y="15" width="18" height="30" rx="4" fill="#a78bfa" stroke="#374151" stroke-width="2" transform="rotate(-30 85 30)"/>
  <rect x="80" y="8" width="10" height="7" rx="2" fill="#a78bfa" stroke="#374151" stroke-width="1.5" transform="rotate(-30 85 30)"/>
  <path d="M83 2 L87 2 L87 8 L83 8 Z" fill="#e5e7eb" stroke="#374151" stroke-width="1.5" transform="rotate(-30 85 30)"/>
  <path d="M72 40 Q75 48 72 52 Q69 48 72 40 Z" fill="#86efac" stroke="#374151" stroke-width="1.5"/>
  <line x1="60" y1="56" x2="60" y2="64" stroke="#86efac" stroke-width="2" stroke-linecap="round"/>
  <line x1="68" y1="56" x2="68" y2="64" stroke="#86efac" stroke-width="2" stroke-linecap="round"/>
  <line x1="84" y1="46" x2="76" y2="56" stroke="#374151" stroke-width="2" stroke-linecap="round"/>
  <path d="M74 52 L76 56 L80 55" stroke="#374151" stroke-width="2" stroke-linecap="round" fill="none"/>
</svg>